<?xml version="1.0" encoding="UTF-8"?>
<svg id="Layer_2" data-name="Layer 2" xmlns="http://www.w3.org/2000/svg" viewBox="0 0 481.03 561.36">
  <defs>
    <style>
      .cls-1 {
        fill: red;
      }

      .cls-2 {
        fill: #fdf8de;
      }
    </style>
  </defs>
  <g id="Layer_1-2" data-name="Layer 1">
    <path class="cls-2" d="M470.26,357.79l-50.85,21.51-52.8,38.13-71.38,60.63-99.73,45.95-77.24,19.56-37.13,4.31c-3.07-4.16-6.21-8.43-9.37-12.79-25.75-35.53-52.77-77.2-51.12-119.31,3.14-80.04,58.07-53.36,65.92-129.86,7.84-76.49-43.95-83.58-80.04-160.48C-6.1,98.56,1.04,64.39,15.66,31.31c1.97-4.47,4.08-8.92,6.31-13.33l14.15-2.41,82.14,14.66,39.11,23.47h56.71l50.84,18.58,43.03,39.11,13.68,20.53,18.58,29.34,3.89.86,31.31,6.96,52.8,39.11,2.1,5.58,20.39,54.06,11.74,60.63,7.82,29.33Z"/>
    <path class="cls-1" d="M439.64,204.31c-2.8-4.39-5.99-8.4-8.76-11.71-2.17-2.64-4.7-4.7-7.11-6.73-1.29-1.01-2.53-2.02-3.7-3.11-1.21-1.13-2.37-2.45-3.58-3.85-2.02-2.3-4.12-4.67-6.81-6.54-2.72-1.9-5.68-3.15-8.52-4.31-1.59-.67-3.19-1.33-4.7-2.1-1.37-.7-2.69-1.48-4.01-2.26-2.8-1.6-5.68-3.27-8.95-4.47l-1.9-.7c-3.86-1.41-7.78-2.84-11.99-3.82-3.73-.89-7.62-1.36-11.36-1.79l-2.02-.27c-.46.55-1.01,1.09-1.59,1.64-1.83,1.67-3.85,3.07-5.84,4.39-1.67,1.13-3.27,2.22-4.7,3.44-.34.28-.66.58-.98.88-2.37,2.26-4.82,4.32-7.23,6.34-1.21,1.01-2.42,2.02-3.58,3.07-1.48,1.25-2.88,2.61-4.24,3.97-1.99,1.95-4.05,3.93-6.34,5.76-1.52,1.2-2.96,2.49-4.44,3.77-2.06,1.87-4.2,3.74-6.53,5.45-1.17.85-2.3,1.67-3.43,2.53-2.37,1.71-4.74,3.46-7.16,5.09-1.67,2.61-2.49,3.93-3.34,5.33-.86,1.36-1.71,2.73-3.46,5.45-3.5,5.56-2.45,12.8,2.18,17.66l-.63,1.01,3.27,2.1c3.31,2.1,7.24,2.65,11.09,1.6,3.62-1.01,6.73-3.35,8.83-6.62,2.18-3.42,3.27-5.17,4.32-6.88,1.09-1.71,2.14-3.43,4.31-6.85,2.22-3.46,3.23-5.25,4.28-7.04,1.01-1.71,1.99-3.46,4.13-6.81,2.02-3.19,3.23-4.59,4.51-6.07,1.4-1.63,2.88-3.3,5.17-6.96,1.68-2.57,4.28-2.88,6.11-2.61,4.82.59,9.42,1.68,13.38,2.65,4.2,1.05,8.41,2.45,12.76,4.28,2.03.82,4.01,1.36,5.96,1.9,2.6.71,5.05,1.41,6.96,2.61,2.1,1.29,3.93,3.27,5.87,5.37,1.29,1.4,2.57,2.8,3.97,4.05,3.74,3.34,6.65,6.41,9.26,9.72,1.09,1.36,2.29,2.69,3.54,4.05.82.85,1.59,1.71,2.29,2.56,2.42-1.01,4.71-1.79,6.81-2.52,1.52-.51,2.96-1.02,4.28-1.56,1.5-.61,2.93-1.15,4.29-1.63,1.98-.71,3.81-1.32,5.51-1.87,1.21-.43,2.38-.78,3.47-1.17,1.12-.39,2.14-.74,3.03-1.09-.74-1.83-1.59-3.62-2.68-5.33ZM481.03,345.49c0-4.55-.97-8.8-2.49-14.01-1.21-3.97-2.41-8.09-4.05-12.41-.58-1.55-1.28-3.11-1.98-4.74-.93-2.07-1.91-4.24-2.69-6.5-.93-2.76-1.75-5.8-2.6-9.06l-.7-2.57c-.47-1.87-.78-3.97-1.05-6.23-.24-1.86-.51-3.73-.9-5.68-.62-3.3-1.24-7.08-1.86-11.9l-.39-2.8c-.47-3.81-.98-7.7-1.72-11.44l-.5-2.45c-.74-3.85-1.52-7.9-2.61-11.67-.81-2.92-1.98-5.48-3.23-8.01-.03-.16-.11-.27-.19-.43-.86-1.71-1.63-3.35-2.22-4.94-1.28-3.42-2.88-6.54-4.43-9.53-.63-1.17-1.25-2.34-1.79-3.5-.82-1.64-1.48-3.35-2.14-5.02-.35-.97-.74-1.99-1.17-2.96-.74-1.83-1.59-3.62-2.68-5.33-2.8-4.39-5.99-8.4-8.76-11.71-2.17-2.64-4.7-4.7-7.11-6.73-1.29-1.01-2.53-2.02-3.7-3.11-1.21-1.13-2.37-2.45-3.58-3.85-2.02-2.3-4.12-4.67-6.81-6.54-2.72-1.9-5.68-3.15-8.52-4.31-1.59-.67-3.19-1.33-4.7-2.1-1.37-.7-2.69-1.48-4.01-2.26-2.8-1.6-5.68-3.27-8.95-4.47l-1.9-.7c-3.86-1.41-7.78-2.84-11.99-3.82-3.73-.89-7.62-1.36-11.36-1.79l-2.02-.27-1.05-.12c-2.25-.27-5.21-1.55-6.07-4.16-1.2-3.62-2.76-7.04-4.28-10.35l-1.05-2.29c-.62-1.4-1.16-2.88-1.75-4.32-.62-1.59-1.24-3.19-1.98-4.78-.51-1.17-1.09-2.38-1.75-3.51-1.52-2.64-3.35-4.97-5.14-7.27-.97-1.24-1.98-2.53-2.91-3.85-2.88-4.05-5.37-7.47-8.25-10.85-1.09-1.29-2.06-2.77-3.11-4.32-1.52-2.26-3.08-4.59-5.14-6.69-1.36-1.37-2.76-2.61-4.2-3.78-.86-.7-1.71-1.4-2.53-2.06-1.28-.97-2.53-1.98-3.73-3.03-3.35-2.92-6.97-5.76-10.66-8.56l-.51-.35c-.23-.2-.5-.39-.78-.59-3.15-2.33-6.41-4.74-9.88-6.96-1.28-.82-2.53-1.67-3.81-2.53-2.45-1.67-4.98-3.38-7.66-4.86-3.62-1.98-7.86-4.28-12.18-6.3-2.61-1.21-5.25-1.95-7.82-2.61-1.87-.5-3.62-.97-5.21-1.59-1.67-.63-3.31-1.44-5.02-2.3-2.37-1.2-4.82-2.41-7.55-3.27-2.8-.85-5.56-1.24-8.28-1.59-1.75-.27-3.5-.51-5.18-.9-4.35-.97-8.63-1.59-12.8-2.21l-3.85-.59c-3.38-.5-6.88-1.05-10.38-1.28-3.74-.2-7.32,0-10.82.15l-2.92.16c-1.71.04-3.46-.04-5.17-.12-2.8-.15-5.72-.31-8.67.16-2.88.43-4.09-.12-4.83-.66-.85-.62-1.79-1.4-2.76-2.18-2.37-1.95-5.33-4.32-9.03-6.38-2.37-1.32-4.94-2.22-7.66-3.15-1.91-.66-3.89-1.36-5.8-2.22-3.85-1.67-8.05-3.19-12.52-4.74l-.86-.32c-4.12-1.47-8.63-2.99-13.57-4.39-1.64-.47-3.39-1.21-5.22-1.99-2.56-1.09-5.25-2.21-8.28-2.87-2.84-.67-5.68-.78-8.41-.9-2.06-.08-4.04-.16-5.91-.47s-3.77-.85-5.8-1.44c-2.6-.73-5.32-1.51-8.2-1.82-2.88-.32-5.72-.2-8.45-.08-2.06.08-4.04.15-5.91.04-1.9-.12-3.85-.39-5.91-.7-2.69-.43-5.49-.86-8.37-.86-1.79,0-3.58.26-5.31.6h-.01c-3.26,5.69-6.41,11.5-9.36,17.38-2.23,4.41-4.34,8.86-6.31,13.33,1.85-.19,3.7-.5,5.55-.77,2.84-.43,5.49-.86,8.13-.93,5.21-.16,10.54-.04,14.59.11,3.38.08,6.92.47,10.35.82,1.4.12,2.76.27,4.12.39l2.84.27c3.85.35,7.82.7,11.63,1.28,2.45.39,4.9,1.17,7.51,1.99,2.1.7,4.28,1.36,6.54,1.87,2.06.46,4.08.77,6.06,1.12,2.46.35,4.75.74,6.81,1.33,2.1.58,4.2,1.05,6.27,1.44,2.37.5,4.59.93,6.49,1.63,3.46,1.24,6.58,2.68,9.57,4.12l2.41,1.09c2.77,1.29,5.1,2.88,7.36,4.44,1.28.89,2.45,1.71,3.61,2.41,2.84,1.67,4.05,4.82,2.96,7.78-1.09,3.03-1.63,4.55-2.14,6.11-.51,1.47-1.01,2.95-2.1,5.91-1.13,3.15-1.56,4.82-1.98,6.42-.39,1.52-.78,2.92-1.79,5.76-1.09,2.99-1.64,4.51-2.14,6.03-.55,1.51-1.05,2.99-2.14,5.95-.94,2.6-1.64,3.69-2.45,4.98-.94,1.48-1.99,3.15-3.23,6.53-1.17,3.27-1.56,5.1-1.87,6.73-.31,1.52-.58,2.84-1.56,5.57-1.36,3.65-1.2,7.5.35,10.89,1.05,2.22,2.65,4.08,4.63,5.48l-.54,1.48,3.66,1.32c3.61,1.33,7.78,1.02,11.51-.77,3.62-1.75,6.5-4.83,7.78-8.41,1.21-3.38,1.67-5.13,2.06-6.84.39-1.6.78-3.08,1.87-6.03,1.21-3.35,1.63-5.14,2.06-6.85.39-1.59.74-3.07,1.83-6.03,1.09-3.07,1.75-4.59,2.37-6.11.66-1.59,1.36-3.19,2.53-6.42,1.01-2.76,1.75-3.93,2.61-5.29,1.01-1.51,2.1-3.26,3.38-6.8,1.33-3.58,1.56-5.65,1.79-7.47.2-1.6.39-2.96,1.36-5.72.94-2.49,3.66-4.83,5.99-5.1,2.84-.31,5.88-.15,9.11.04,1.63.08,3.27.2,4.9.23,1.59,0,3.27,0,4.94-.03,3.03,0,6.19-.12,9.14.31,4.01.54,8.56,1.44,13.85,2.72,2.33.54,4.67,1.59,7.16,2.68,1.94.9,3.93,1.75,6.07,2.49,1.71.59,3.5,1.09,5.33,1.64,2.84.81,5.56,1.59,8.13,2.68,2.21.97,4.39,2.37,6.65,3.85,1.75,1.17,3.58,2.34,5.52,3.39,1.72.89,3.5,1.71,5.29,2.56,2.61,1.21,5.1,2.34,7.36,3.78,2.02,1.32,3.85,2.95,5.79,4.71,1.48,1.32,2.96,2.64,4.52,3.81,1.47,1.13,3.03,2.18,4.55,3.23,2.25,1.55,4.39,2.99,6.26,4.66,1.52,1.41,3.19,2.65,4.75,3.86,2.06,1.55,4.04,3.03,5.6,4.7,1.83,2.03,3.42,4.32,5.06,6.73.97,1.4,1.9,2.77,2.87,4.05,2.61,3.46,5.33,7.16,7.59,10.97,1.59,2.68,2.8,5.56,4.05,8.6.38.97.77,1.86,1.16,2.8.12.19.2.43.27.62l1.21,2.64c1.48,3.31,2.88,6.42,3.77,9.57.59,2.03-.62,4.32-1.36,5.49-1.75,2.72-2.64,4.08-3.54,5.45-.93,1.36-1.83,2.72-3.62,5.52-1.9,3-2.68,4.75-3.38,6.26-.62,1.44-1.24,2.77-2.84,5.29-1.56,2.45-2.49,3.47-3.58,4.59-1.2,1.29-2.57,2.73-4.51,5.8-.08.12-.12.2-.2.27-1.67,2.61-2.49,3.93-3.34,5.33-.86,1.36-1.71,2.73-3.46,5.45-3.5,5.56-2.45,12.8,2.18,17.66l-.63,1.01,3.27,2.1c3.31,2.1,7.24,2.65,11.09,1.6,3.62-1.01,6.73-3.35,8.83-6.62,2.18-3.42,3.27-5.17,4.32-6.88,1.09-1.71,2.14-3.43,4.31-6.85,2.22-3.46,3.23-5.25,4.28-7.04,1.01-1.71,1.99-3.46,4.13-6.81,2.02-3.19,3.23-4.59,4.51-6.07,1.4-1.63,2.88-3.3,5.17-6.96,1.68-2.57,4.28-2.88,6.11-2.61,4.82.59,9.42,1.68,13.38,2.65,4.2,1.05,8.41,2.45,12.76,4.28,2.03.82,4.01,1.36,5.96,1.9,2.6.71,5.05,1.41,6.96,2.61,2.1,1.29,3.93,3.27,5.87,5.37,1.29,1.4,2.57,2.8,3.97,4.05,3.74,3.34,6.65,6.41,9.26,9.72,1.09,1.36,2.29,2.69,3.54,4.05.82.85,1.59,1.71,2.29,2.56,1.09,1.25,2.11,2.53,2.88,3.93,1.99,3.47,3.62,7.36,5.29,11.48l.47,1.05c1.36,3.31,2.65,6.81,3.81,10.46.28.86.51,1.72.78,2.57.66,2.3,1.01,4.86,1.4,7.55.27,2.02.55,4.08.97,6.15.82,4,1.37,8.2,1.95,12.68l.15,1.01c.43,3.34,1.13,6.42,1.79,9.37.32,1.44.63,2.84.9,4.21.89,4.55,1.83,9.29,2.96,13.53.46,1.71.85,3.39,1.28,5.02.7,2.96,1.36,5.72,2.26,8.37,1.01,3.07,2.68,5.56,4.12,7.81,1.01,1.56,1.94,3.04,2.45,4.32.82,2.18,1.01,4.32,1.17,6.38.11,1.68.23,3.27.7,4.79l.46,1.51c1.21,3.93,1.56,5.37.98,6.85-1.37,3.27-1.75,4.12-12.41,7.86-1.09.39-2.26.78-3.47,1.17-2.87.93-6.14,2.02-9.8,3.5-1.32.54-2.76,1.05-4.28,1.55-2.72.94-5.79,1.99-8.95,3.58-2.99,1.48-7.54,3.81-12.52,6.65l-2.76,1.6c-3,1.71-6.15,3.5-9.38,5.64-1.05.7-2.14,1.36-3.27,2.1-2.76,1.75-5.6,3.54-8.52,5.64-2.1,1.52-3.93,3.35-5.71,5.1-1.52,1.48-3.12,3.03-4.75,4.32-2.06,1.59-4.05,3.38-5.91,5.13-1.52,1.36-3.04,2.72-4.67,4.09-1.4,1.16-3.08,2.21-4.83,3.34-2.21,1.4-4.47,2.84-6.65,4.75-2.22,1.94-4.39,3.97-6.65,6.07-1.21,1.12-2.41,2.25-3.66,3.42-1.86,1.71-3.5,3.66-5.09,5.56-1.44,1.71-2.8,3.35-4.36,4.83-1.52,1.44-3.46,2.72-5.52,4-1.95,1.29-3.93,2.57-5.8,4.2-1.79,1.52-3.35,3.27-4.86,4.91-1.68,1.86-3.27,3.57-5.02,4.98-1.87,1.43-3.93,2.68-6.15,4-1.83,1.09-3.77,2.26-5.6,3.58-2.26,1.6-4.63,3.07-7.16,4.63-1.51.93-3.07,1.87-4.59,2.88-1.52,1.01-3.03,2.06-4.55,3.11-2.37,1.63-4.63,3.19-7,4.59-1.87,1.13-3.66,2.37-5.45,3.58-2.14,1.48-4.16,2.88-6.3,4.05-1.63.89-3.23,1.82-4.82,2.72-2.45,1.4-4.91,2.84-7.43,4.08-2.07,1.05-4.32,1.87-6.73,2.77-2.1.77-4.21,1.55-6.27,2.49-1.98.89-3.93,1.94-5.87,2.99-2.26,1.21-4.4,2.37-6.61,3.31-3.39,1.36-6.81,2.64-10.27,3.93l-2.81,1.09c-2.02.74-4.27,1.2-6.61,1.67-2.29.47-4.67.97-7,1.75-2.02.7-4.01,1.48-5.99,2.26-2.45.97-4.75,1.9-7.16,2.64-4.43,1.36-8.91,2.65-13.42,3.89-3.11.86-6.23,1.6-9.38,2.34l-4.2,1.01c-2.49.58-4.98,1.01-7.62,1.44-2.03.35-4.09.7-6.15,1.12-3.77.82-7.58,1.52-11.44,2.22l-2.29.39c-2.41.47-4.71,1.17-6.93,1.83-2.29.74-4.47,1.4-6.65,1.75-2.18.31-4.47.35-6.92.39-2.3,0-4.67.08-7.12.39-2.37.27-4.67.81-6.89,1.32-2.41.54-4.67,1.05-6.88,1.28-1.6.16-3.19.32-4.83.47-2,.23-4,.44-6.01.62,3.16,4.36,6.3,8.63,9.37,12.79,3.41,4.63,6.72,9.13,9.87,13.48,2.31-.22,4.62-.46,6.92-.75,1.91-.23,3.82-.39,5.72-.58,2.84-.27,5.68-.55,8.52-.97,3-.43,5.95-1.01,8.91-1.56,1.71-.35,3.42-.66,5.14-.97,1.98-.35,4.08-.47,6.3-.62,2.6-.16,5.29-.32,7.97-.86,2.73-.58,5.33-1.36,7.86-2.14,1.99-.62,3.93-1.24,5.95-1.71,2.69-.62,5.26-1.52,7.71-2.41,2.02-.74,3.96-1.44,5.91-1.95,1.79-.47,3.58-.89,5.37-1.36,2.84-.66,5.68-1.36,8.48-2.18,1.94-.58,3.97-.97,6.11-1.4,2.56-.54,5.21-1.05,7.81-1.91,2.96-.97,5.84-2.06,8.68-3.15,1.59-.58,3.19-1.2,4.78-1.75,3.54-1.28,7.05-2.68,10.55-4.08l2.8-1.13c2.64-1.01,5.13-2.26,7.54-3.46,1.79-.86,3.62-1.75,5.45-2.53,3.89-1.71,7.66-3.5,11.48-5.29l1.48-.7c1.82-.86,3.77-1.52,5.87-2.18,2.53-.78,5.1-1.63,7.59-2.92,2.52-1.28,4.82-2.84,7-4.35,1.79-1.17,3.46-2.34,5.17-3.27,4.2-2.38,8.37-4.83,12.37-7.24,1.67-1.05,3.5-1.94,5.45-2.88,2.37-1.2,4.86-2.41,7.2-3.96,2.8-1.87,5.52-3.89,8.24-5.88,1.13-.85,2.26-1.71,3.43-2.53,2.33-1.71,4.47-3.62,6.53-5.44,1.48-1.29,2.92-2.61,4.44-3.82,2.29-1.79,4.35-3.81,6.34-5.71,1.36-1.37,2.76-2.73,4.24-4.01,1.16-1.01,2.37-2.02,3.58-3.04,2.41-2.02,4.86-4.12,7.23-6.34,1.67-1.59,3.62-2.91,5.68-4.31,1.99-1.37,4.01-2.73,5.84-4.4,2.02-1.87,3.65-3.89,5.25-5.84,1.48-1.82,2.88-3.54,4.39-4.86,1.44-1.24,2.84-2.49,4.21-3.73,2.25-1.99,4.39-3.93,6.57-5.72,2.06-1.71,4.32-3.15,6.5-4.59,1.86-1.17,3.65-2.37,5.29-3.62,1.94-1.48,3.73-3.03,5.48-4.55,1.91-1.71,3.74-3.27,5.57-4.55,4.24-2.96,8.28-5.45,11.98-7.74,2.37-1.44,4.94-2.46,7.43-3.43,1.86-.74,3.77-1.48,5.52-2.41,1.99-1.01,3.85-2.1,5.6-3.11,2.45-1.4,4.71-2.72,6.85-3.62,2.72-1.13,5.41-1.75,8.05-2.33,1.95-.47,3.81-.9,5.6-1.52,3-1.05,5.57-2.41,8.1-3.74,1.09-.58,2.14-1.16,3.22-1.67.74-.35,1.44-.7,2.18-1.01,3.12-1.4,6.66-2.99,9.5-5.95,2.95-3.11,4.7-7.31,6.61-11.91l1.52-3.57-1.17-.47c1.28-3.39,2.14-6.65,2.14-10.19ZM439.64,204.31c-2.8-4.39-5.99-8.4-8.76-11.71-2.17-2.64-4.7-4.7-7.11-6.73-1.29-1.01-2.53-2.02-3.7-3.11-1.21-1.13-2.37-2.45-3.58-3.85-2.02-2.3-4.12-4.67-6.81-6.54-2.72-1.9-5.68-3.15-8.52-4.31-1.59-.67-3.19-1.33-4.7-2.1-1.37-.7-2.69-1.48-4.01-2.26-2.8-1.6-5.68-3.27-8.95-4.47l-1.9-.7c-3.86-1.41-7.78-2.84-11.99-3.82-3.73-.89-7.62-1.36-11.36-1.79l-2.02-.27c-.46.55-1.01,1.09-1.59,1.64-1.83,1.67-3.85,3.07-5.84,4.39-1.67,1.13-3.27,2.22-4.7,3.44-.34.28-.66.58-.98.88-2.37,2.26-4.82,4.32-7.23,6.34-1.21,1.01-2.42,2.02-3.58,3.07-1.48,1.25-2.88,2.61-4.24,3.97-1.99,1.95-4.05,3.93-6.34,5.76-1.52,1.2-2.96,2.49-4.44,3.77-2.06,1.87-4.2,3.74-6.53,5.45-1.17.85-2.3,1.67-3.43,2.53-2.37,1.71-4.74,3.46-7.16,5.09-1.67,2.61-2.49,3.93-3.34,5.33-.86,1.36-1.71,2.73-3.46,5.45-3.5,5.56-2.45,12.8,2.18,17.66l-.63,1.01,3.27,2.1c3.31,2.1,7.24,2.65,11.09,1.6,3.62-1.01,6.73-3.35,8.83-6.62,2.18-3.42,3.27-5.17,4.32-6.88,1.09-1.71,2.14-3.43,4.31-6.85,2.22-3.46,3.23-5.25,4.28-7.04,1.01-1.71,1.99-3.46,4.13-6.81,2.02-3.19,3.23-4.59,4.51-6.07,1.4-1.63,2.88-3.3,5.17-6.96,1.68-2.57,4.28-2.88,6.11-2.61,4.82.59,9.42,1.68,13.38,2.65,4.2,1.05,8.41,2.45,12.76,4.28,2.03.82,4.01,1.36,5.96,1.9,2.6.71,5.05,1.41,6.96,2.61,2.1,1.29,3.93,3.27,5.87,5.37,1.29,1.4,2.57,2.8,3.97,4.05,3.74,3.34,6.65,6.41,9.26,9.72,1.09,1.36,2.29,2.69,3.54,4.05.82.85,1.59,1.71,2.29,2.56,2.42-1.01,4.71-1.79,6.81-2.52,1.52-.51,2.96-1.02,4.28-1.56,1.5-.61,2.93-1.15,4.29-1.63,1.98-.71,3.81-1.32,5.51-1.87,1.21-.43,2.38-.78,3.47-1.17,1.12-.39,2.14-.74,3.03-1.09-.74-1.83-1.59-3.62-2.68-5.33Z"/>
  </g>
</svg>