<?xml version="1.0" encoding="UTF-8"?>
<svg id="Layer_2" data-name="Layer 2" xmlns="http://www.w3.org/2000/svg" viewBox="0 0 498.49 564.41">
  <defs>
    <style>
      .cls-1 {
        fill: red;
      }

      .cls-2 {
        fill: #fdf8de;
      }
    </style>
  </defs>
  <g id="Layer_1-2" data-name="Layer 1">
    <path class="cls-1" d="M488.62,547.28c-3.07-4.16-6.21-8.43-9.37-12.79-1.04.09-2.08.17-3.13.24-2.68.19-5.37.23-8.05.27-1.98.04-3.97.04-5.95.15-2.03.08-4.05.2-6.07.35-2.65.2-5.29.39-7.94.43-2.1-.04-4.35-.31-6.69-.62-2.29-.31-4.63-.66-7.08-.7h-.85c-1.87,0-3.74.08-5.65.16-2.52.11-4.9.19-7.27.11-2.26-.08-4.55-.43-6.96-.81-2.18-.32-4.44-.67-6.73-.82-2.41-.16-4.75-.04-7.04.04-2.38.11-4.59.23-6.73.04-1.64-.16-3.27-.31-4.91-.43-2.95-.27-5.91-.51-8.83-.86-3.89-.5-7.82-1.09-11.67-1.67l-1.94-.31c-2.06-.31-4.2-1.01-6.42-1.75-2.22-.74-4.47-1.52-6.93-1.95-2.41-.46-4.82-.58-7.11-.66-2.34-.12-4.56-.23-6.62-.66-2.1-.47-4.16-1.24-6.38-2.14-2.14-.82-4.35-1.67-6.69-2.26-2.33-.54-4.63-.85-6.85-1.16-2.37-.31-4.62-.63-6.73-1.21-2.13-.58-4.2-1.52-6.41-2.49-2.07-.89-4.17-1.83-6.42-2.53-2.49-.78-4.98-1.05-7.36-1.36-2.29-.23-4.43-.5-6.3-1.13-2.41-.85-4.74-1.86-7.19-2.91-1.83-.82-3.7-1.6-5.53-2.34-2.33-.89-4.55-1.94-6.92-3.11-1.87-.9-3.7-1.79-5.6-2.61-2.18-.93-4.44-1.59-6.62-2.21-2.29-.67-4.47-1.33-6.42-2.22-1.94-.94-3.77-2.22-5.75-3.58-1.87-1.32-3.82-2.65-5.96-3.77-1.63-.82-3.26-1.64-4.94-2.42-2.53-1.24-4.98-2.41-7.31-3.73-2.92-1.67-5.76-3.42-8.6-5.17l-3.11-1.95c-2.1-1.28-4.08-2.8-6.18-4.36-1.64-1.24-3.27-2.49-4.98-3.61-1.72-1.17-3.51-2.22-5.29-3.27-2.26-1.32-4.36-2.61-6.31-4.01-2.14-1.59-4.16-3.31-6.3-5.13-1.4-1.21-2.8-2.42-4.28-3.58-1.48-1.21-3.03-2.38-4.59-3.5-2.18-1.64-4.28-3.19-6.22-4.91-1.95-1.71-3.78-3.57-5.72-5.6-1.32-1.36-2.61-2.68-3.97-4-2.06-1.95-4.24-3.51-6.34-5.02-1.71-1.25-3.35-2.41-4.75-3.66-1.51-1.44-2.84-3.07-4.28-4.82-1.55-1.95-3.19-3.93-5.13-5.64-2.18-1.95-4.55-3.35-6.85-4.71-1.79-1.05-3.5-2.06-4.86-3.23-1.59-1.32-3-2.92-4.47-4.59-1.68-1.87-3.39-3.81-5.45-5.45-2.37-1.83-4.78-3.19-7.16-4.51-1.75-1.01-3.38-1.94-4.82-2.99-1.71-1.21-3.31-2.53-4.86-3.78-2.14-1.71-4.17-3.34-6.35-4.78l-3.54-2.34c-2.87-1.94-5.6-3.73-8.36-5.33-1.24-.74-2.45-1.44-3.66-2.18-3.03-1.78-5.87-3.46-8.71-4.86-3.11-1.55-6.15-2.49-8.87-3.3-1.59-.47-3.15-.94-4.55-1.52-2.26-.9-4.28-1.87-6.19-2.76-2.33-1.13-4.55-2.18-6.77-2.92-1.98-.7-3.69-1.25-5.21-1.75-6.84-2.26-7.12-2.49-7.97-4.51-.55-1.33-.04-3.04,1.01-6.5l1.24-4.2c.7-2.45,1.48-5.22,2.77-8.52.81-2.22,1.47-4.51,2.17-6.97.55-1.94,1.13-4,1.87-6.14.9-2.65,1.56-5.41,2.26-8.33.39-1.59.78-3.26,1.24-4.98.39-1.47,1.05-3.11,1.79-4.78,1.01-2.45,2.14-5.21,2.76-8.29.51-2.6.55-5.25.59-7.82.04-1.98.08-4.04.35-6.03l.31-2.41c.54-4,1.01-7.82,1.75-11.4,1.01-4.9,2.33-9.57,3.5-13.5.35-1.12.7-2.21,1.13-3.3.82-2.37,1.79-4.67,2.76-6.93l2.18-5.21c1.48-3.62,2.88-7.04,4.59-10.07.93-1.6,1.98-3.04,3.15-4.52.78-1.01,1.63-2.02,2.53-3.07.93-1.09,1.83-2.18,2.68-3.23,2.92-3.69,6.42-6.92,9.46-9.65,3.81-3.42,7.19-6.03,10.66-8.21,3.65-2.25,7.58-4.59,11.94-6.37,2.49-1.06,5.33-1.64,8.32-2.22,1.64-.35,3.23-.66,4.87-1.05l1.44-.39c3.81-.97,7.78-1.95,11.86-2.45,1.13-.12,4.9-.35,6.61,2.37,2.22,3.5,3.39,5.17,4.56,6.89,1.12,1.63,2.25,3.3,4.39,6.65,2.02,3.15,2.76,4.86,3.5,6.65.9,1.98,1.79,4.05,4.13,7.74,2.14,3.35,3.19,5.1,4.2,6.81,1.05,1.75,2.1,3.5,4.32,6.96,2.13,3.35,5.6,5.41,9.72,5.84,3.03.27,6.3-.35,9.18-1.83h.7l.94-.58c6.84-4.36,8.67-12.49,4.35-19.26-1.63-2.57-2.25-3.89-2.92-5.29-.73-1.6-1.47-3.23-3.38-6.22h-.04c-1.9-3.08-3.31-4.52-4.51-5.76-1.09-1.13-2.02-2.14-3.58-4.55-1.56-2.45-2.06-3.74-2.61-5.22-.66-1.63-1.36-3.46-3.34-6.53-1.87-2.96-3-4.36-4.09-5.68-1.01-1.25-1.94-2.37-3.58-4.98-1.09-1.67-.58-4.28-.19-5.68.43-1.52.82-3.07,1.17-4.59.66-2.92,1.32-5.64,2.41-8.17.15-.35.35-.74.54-1.09.94-1.91,2.22-3.77,3.5-5.72,1.02-1.48,1.99-2.95,2.92-4.47.62-1.09,1.25-2.18,1.87-3.27,1.63-2.88,3.15-5.56,5.02-8.05.89-1.21,1.79-2.41,2.64-3.66,1.71-2.41,3.47-4.9,5.45-7.04,3.19-3.46,6.38-6.65,9.49-9.45,1.79-1.64,3.89-3.04,6.15-4.52,1.59-1.05,3.23-2.14,4.78-3.3,3.35-2.57,6.89-4.83,10.66-7.24l.43-.27c1.91-1.21,3.66-2.57,5.37-3.85,2.25-1.75,4.39-3.39,6.61-4.55,3.42-1.83,7.08-3.39,10.62-4.87l2.72-1.16c2.42-1.01,5.02-1.64,7.78-2.3,2.07-.47,4.21-.97,6.31-1.67,4.35-1.44,9.06-2.92,13.88-4.05,5.68-1.28,10.04-2.1,14.17-2.6,2.06-.24,4.12-.66,6.14-1.05,2.88-.59,5.64-1.13,8.17-1.13,2.72,0,5.56.35,8.29.74,1.05.11,2.1.27,3.15.39,2.29.27,4.51,2.21,5.44,4.78,1.25,3.39,2.1,5.06,2.96,6.61.74,1.44,1.44,2.77,2.53,5.68,1.01,2.84,1.24,4.21,1.52,5.84.27,1.75.62,3.73,1.9,7.2,1.09,2.99,1.48,4.51,1.91,6.1.43,1.68.89,3.43,2.1,6.73,1.17,3.15,1.67,4.71,2.22,6.27.58,1.63,1.13,3.23,2.29,6.42,1.21,3.34,1.95,4.98,2.69,6.53.74,1.48,1.4,2.92,2.49,5.91,2.17,6.03,8.28,9.38,14.82,8.64l.27.74,3.66-1.32c3.61-1.33,6.61-3.82,8.4-7.12,1.94-3.5,2.29-7.51.93-11.17-1.2-3.3-2.14-4.98-2.99-6.42-.78-1.32-1.44-2.49-2.41-5.17-.94-2.64-1.17-3.97-1.4-5.48-.28-1.68-.59-3.54-1.79-6.89-1.21-3.31-2.14-4.94-3-6.38-.78-1.36-1.44-2.53-2.41-5.21-.94-2.61-1.13-3.93-1.36-5.45-.24-1.67-.51-3.62-1.71-7-1.09-2.96-1.6-4.44-2.07-5.91-.54-1.56-1.05-3.08-2.14-6.11-.58-1.64-1.59-5.6,1.91-7.7,2.18-1.29,4.94-2.53,8.13-3.97l3.46-1.56c1.36-.62,2.76-1.36,4.24-2.14,2.34-1.24,4.79-2.53,7.47-3.5,3.74-1.32,7.94-2.53,12.49-3.81,4.05-1.17,8.52-2.18,12.76-3.11,3.15-.7,6.38-1.17,9.8-1.64,1.48-.23,3-.43,4.52-.66,4.62-.74,9.53-1.48,14.39-1.91.25-.02.5-.05.75-.08,1.97-4.47,4.08-8.92,6.31-13.33,2.95-5.88,6.1-11.69,9.36-17.38-1.03.2-2.05.43-3.04.65-2.1.5-4.04.93-5.87,1.05-1.71.07-3.43.11-5.14.15-2.95.08-6.03.16-9.14.51-1.79.19-3.58.31-5.37.43-2.88.19-5.87.42-8.87.89-2.88.47-5.52,1.36-8.09,2.26-1.98.66-3.85,1.28-5.68,1.67-2.02.47-4.08.66-6.26.86-2.61.23-5.29.5-7.94,1.24-3.54,1.01-6.77,2.22-9.92,3.35-1.2.46-2.41.89-3.69,1.36-4.79,1.71-9.26,3.3-13.31,5.09-1.67.74-3.31,1.4-4.86,2.03-3,1.24-5.84,2.37-8.36,3.81-3.86,2.14-6.97,4.55-9.46,6.5-.89.7-1.71,1.32-2.49,1.9-.78.55-1.98,1.17-4.67.74-3.42-.51-6.92-.58-10.27-.66-1.2-.04-2.41-.08-3.57-.12-1.25,0-2.46-.11-3.7-.19-3.27-.2-6.65-.43-10.12-.2-2.87.16-5.6.86-8.24,1.52-1.83.43-3.58.9-5.29,1.13-1.68.23-3.47.27-5.33.31-2.73.08-5.53.12-8.41.78-2.76.62-5.25,1.79-7.66,2.95-1.75.82-3.46,1.64-5.13,2.14-1.64.51-3.43.78-5.33,1.09-2.65.43-5.37.86-8.09,1.91-2.61,1.01-4.98,2.41-7.24,3.77-1.67.98-3.27,1.91-4.86,2.65-1.52.74-3.08,1.36-4.63,2.02-2.61,1.05-5.25,2.14-7.86,3.54l-2.76,1.52c-3,1.63-6.15,3.3-9.14,5.25-1.02.66-2.07,1.32-3.12,1.98-2.45,1.48-4.9,3.04-7.27,4.79-.35.23-.7.47-1.05.74-2.34,1.71-4.32,3.73-6.19,5.68-1.24,1.28-2.49,2.57-3.81,3.73-1.32,1.13-2.72,2.18-4.12,3.27-.74.54-1.44,1.13-2.18,1.71-1.48,1.13-2.96,2.37-4.32,3.74-2.06,2.06-3.62,4.39-5.13,6.65-1.05,1.55-2.07,3.03-3.12,4.32-1.12,1.32-2.41,2.56-3.77,3.89-1.98,1.86-4.01,3.81-5.68,6.14-2.1,3-3.85,6.11-5.56,9.14l-1.52,2.69c-.62,1.09-1.17,2.18-1.67,3.27-.86,1.79-1.6,3.61-2.34,5.37-.54,1.32-1.09,2.6-1.67,3.92-1.44,3.23-2.49,6.54-3.46,9.73-.31,1.09-.66,2.18-1.01,3.23-.74,2.29-3.97,3.46-6.5,3.81-.16,0-.31.04-.47.08-3.03.39-5.87,1.32-8.56,2.22-1.67.58-3.34,1.12-5.01,1.51-4.75,1.13-9.07,2.65-13.77,4.36-5.49,1.98-9.61,3.73-13.35,5.68l-1.83.93c-3.61,1.83-7.35,3.74-10.85,6.19-3.46,2.45-6.46,5.25-9.38,8.01l-1.63,1.48c-1.05,1.01-2.18,1.95-3.27,2.88-2.49,2.18-5.09,4.4-7.47,7.27-2.99,3.62-6.03,7.32-8.71,11.48-.78,1.25-1.56,2.53-2.37,3.93-1.44,2.57-2.96,5.45-4.63,8.83-1.99,4.08-3.62,8.44-5.21,12.64l-.28.78c-.62,1.6-1.32,3.19-2.06,4.79,0,0-.04.07-.04.11-1.24,2.73-2.45,5.49-3.34,8.56-.94,3.39-1.6,6.93-2.22,10.35-.27,1.24-.51,2.53-.74,3.81-.58,2.88-.78,5.8-1.01,8.64-.12,1.86-.23,3.77-.51,5.68l-.43,3.34c-.38,3.08-.73,5.95-1.24,8.64-.43,2.1-1.24,4.08-2.1,6.18-.7,1.68-1.4,3.43-1.91,5.26-.85,3.15-1.86,6.03-2.84,8.83l-.89,2.56c-.82,2.49-1.13,4.94-1.44,7.12-.23,1.87-.47,3.62-.97,4.94-.51,1.33-1.01,2.65-1.56,3.93-1.17,2.88-2.26,5.6-3.11,8.48C1.21,335.12.04,339.79,0,344.89v.5c0,4.16-.03,8.91,2.03,13.81,1.71,4.09,4.47,6.81,6.69,8.99.54.5,1.05,1.01,1.52,1.48l1.4,1.51c2.45,2.65,5.01,5.41,8.67,7.16,2.45,1.17,5.02,1.83,7.51,2.49,1.44.39,2.92.78,4.4,1.29,2.13.73,4.39,1.78,7.04,2.95,1.86.86,3.89,1.75,6.03,2.65,1.51.62,3.19,1.2,4.9,1.79,2.72.89,5.52,1.86,8.28,3.26,1.95,1.02,3.93,2.46,6.07,3.97,1.83,1.29,3.7,2.65,5.76,3.93,1.4.86,2.88,1.67,4.4,2.53,2.56,1.48,5.25,2.96,7.81,4.75,1.52,1.09,3.16,2.1,4.83,3.15,2.37,1.48,4.78,2.99,7.12,4.74,4.43,3.39,7.89,6.15,11.24,8.87,1.67,1.4,3.27,3.08,5.02,4.87,1.63,1.71,3.34,3.46,5.29,5.17,2.14,1.91,4.32,3.93,6.53,5.99,1.29,1.25,2.65,2.49,3.97,3.73,1.79,1.64,3.7,3.04,5.6,4.4,2.03,1.52,3.97,2.92,5.72,4.59,1.17,1.13,2.3,2.3,3.47,3.42,2.02,2.07,4.16,4.21,6.45,6.19,1.4,1.24,2.69,2.72,4.05,4.24,1.71,1.95,3.5,3.97,5.64,5.72,2.92,2.33,5.95,4.59,8.95,6.85l2.1,1.55c3.3,2.49,6.77,4.86,10.23,7.24l1.09.78c2.22,1.51,4.63,2.64,6.92,3.77,1.91.89,3.7,1.75,5.29,2.76,1.56.97,3.08,2.02,4.63,3.07,2.18,1.56,4.48,3.12,6.89,4.52,1.44.85,2.88,1.75,4.32,2.6,2.49,1.56,4.98,3.08,7.58,4.48,2.37,1.24,4.83,2.21,7.2,3.15,1.94.78,3.73,1.48,5.48,2.33,1.72.86,3.35,1.95,5.1,3.07,2.14,1.41,4.36,2.84,6.85,3.97,1.75.82,3.46,1.68,5.17,2.57,2.33,1.21,4.75,2.45,7.28,3.46l2.37,1.01c3.42,1.44,6.92,2.88,10.42,4.21,2.53.97,5.1,1.71,7.59,2.41,1.91.54,3.77,1.09,5.64,1.71,2.53.85,5.1,1.32,7.59,1.79,2.1.39,4.04.74,5.91,1.32,1.71.55,3.38,1.09,5.1,1.67,2.64.9,5.32,1.79,8.01,2.53,1.87.51,3.73,1.25,5.68,1.99,2.37.89,4.82,1.86,7.43,2.49,2.57.62,5.17.89,7.66,1.16,2.1.24,4.13.43,6.03.86,1.87.39,3.78,1.05,5.76,1.71,2.37.82,4.86,1.67,7.51,2.18,2.6.51,5.21.62,7.74.74,2.1.12,4.12.23,6.03.5,1.91.32,3.81.9,5.83,1.48,2.46.74,4.94,1.48,7.63,1.83,1.48.2,2.96.39,4.43.62,3.12.43,6.19.86,9.3,1.17,2.61.27,5.18.23,7.7.19,2.14,0,4.17-.07,6.11.08,1.95.16,3.85.39,5.8.63,2.64.27,5.29.58,7.93.73,2.65.12,5.22,0,7.75-.11,2.02-.12,4.04-.24,6.06-.16l4.48.12c4.04.15,8.13.19,12.21.23,1.44.04,2.84.04,4.24.04,1.99-.04,3.93,0,5.92.04,1.47.04,2.99.04,4.47.04,1.32,0,2.61,0,3.93-.08,3.62-.12,7.23-.39,10.81-.62l3.47-.23c2.76-.2,5.4-.67,7.97-1.13,2.06-.35,4.12-.7,6.19-.9l2.02-.19c1.76-.17,3.51-.33,5.25-.5-3.15-4.35-6.46-8.85-9.87-13.48Z"/>
    <path class="cls-2" d="M428.13,415.18c-1.65,42.11,25.37,83.78,51.12,119.31-1.04.09-2.08.17-3.13.24-2.68.19-5.37.23-8.05.27-1.98.04-3.97.04-5.95.15-2.03.08-4.05.2-6.07.35-2.65.2-5.29.39-7.94.43-2.1-.04-4.35-.31-6.69-.62-2.29-.31-4.63-.66-7.08-.7h-.85c-1.87,0-3.74.08-5.65.16-2.52.11-4.9.19-7.27.11-2.26-.08-4.55-.43-6.96-.81-2.18-.32-4.44-.67-6.73-.82-2.41-.16-4.75-.04-7.04.04-2.38.11-4.59.23-6.73.04-1.64-.16-3.27-.31-4.91-.43-2.95-.27-5.91-.51-8.83-.86-3.89-.5-7.82-1.09-11.67-1.67l-1.94-.31c-2.06-.31-4.2-1.01-6.42-1.75-2.22-.74-4.47-1.52-6.93-1.95-2.41-.46-4.82-.58-7.11-.66-2.34-.12-4.56-.23-6.62-.66-2.1-.47-4.16-1.24-6.38-2.14-2.14-.82-4.35-1.67-6.69-2.26-2.33-.54-4.63-.85-6.85-1.16-2.37-.31-4.62-.63-6.73-1.21-2.13-.58-4.2-1.52-6.41-2.49-2.07-.89-4.17-1.83-6.42-2.53-2.49-.78-4.98-1.05-7.36-1.36-2.29-.23-4.43-.5-6.3-1.13-2.41-.85-4.74-1.86-7.19-2.91-1.83-.82-3.7-1.6-5.53-2.34-2.33-.89-4.55-1.94-6.92-3.11-1.87-.9-3.7-1.79-5.6-2.61-2.18-.93-4.44-1.59-6.62-2.21-2.29-.67-4.47-1.33-6.42-2.22-1.94-.94-3.77-2.22-5.75-3.58-1.87-1.32-3.82-2.65-5.96-3.77-1.63-.82-3.26-1.64-4.94-2.42-2.53-1.24-4.98-2.41-7.31-3.73-2.92-1.67-5.76-3.42-8.6-5.17l-3.11-1.95c-2.1-1.28-4.08-2.8-6.18-4.36-1.64-1.24-3.27-2.49-4.98-3.61-1.72-1.17-3.51-2.22-5.29-3.27-2.26-1.32-4.36-2.61-6.31-4.01-2.14-1.59-4.16-3.31-6.3-5.13-1.4-1.21-2.8-2.42-4.28-3.58-1.48-1.21-3.03-2.38-4.59-3.5-2.18-1.64-4.28-3.19-6.22-4.91-1.95-1.71-3.78-3.57-5.72-5.6-1.32-1.36-2.61-2.68-3.97-4-2.06-1.95-4.24-3.51-6.34-5.02-1.71-1.25-3.35-2.41-4.75-3.66-1.51-1.44-2.84-3.07-4.28-4.82-1.55-1.95-3.19-3.93-5.13-5.64-2.18-1.95-4.55-3.35-6.85-4.71-1.79-1.05-3.5-2.06-4.86-3.23-1.59-1.32-3-2.92-4.47-4.59-1.68-1.87-3.39-3.81-5.45-5.45-2.37-1.83-4.78-3.19-7.16-4.51-1.75-1.01-3.38-1.94-4.82-2.99-1.71-1.21-3.31-2.53-4.86-3.78-2.14-1.71-4.17-3.34-6.35-4.78l-3.54-2.34c-2.87-1.94-5.6-3.73-8.36-5.33-1.24-.74-2.45-1.44-3.66-2.18-3.03-1.78-5.87-3.46-8.71-4.86-3.11-1.55-6.15-2.49-8.87-3.3-1.59-.47-3.15-.94-4.55-1.52-2.26-.9-4.28-1.87-6.19-2.76-2.33-1.13-4.55-2.18-6.77-2.92-1.98-.7-3.69-1.25-5.21-1.75-6.84-2.26-7.12-2.49-7.97-4.51-.55-1.33-.04-3.04,1.01-6.5l1.24-4.2c.7-2.45,1.48-5.22,2.77-8.52.81-2.22,1.47-4.51,2.17-6.97.55-1.94,1.13-4,1.87-6.14.9-2.65,1.56-5.41,2.26-8.33.39-1.59.78-3.26,1.24-4.98.39-1.47,1.05-3.11,1.79-4.78,1.01-2.45,2.14-5.21,2.76-8.29.51-2.6.55-5.25.59-7.82.04-1.98.08-4.04.35-6.03l.31-2.41c.54-4,1.01-7.82,1.75-11.4,1.01-4.9,2.33-9.57,3.5-13.5.35-1.12.7-2.21,1.13-3.3.82-2.37,1.79-4.67,2.76-6.93l2.18-5.21c1.48-3.62,2.88-7.04,4.59-10.07.93-1.6,1.98-3.04,3.15-4.52.78-1.01,1.63-2.02,2.53-3.07.93-1.09,1.83-2.18,2.68-3.23,2.92-3.69,6.42-6.92,9.46-9.65,3.81-3.42,7.19-6.03,10.66-8.21,3.65-2.25,7.58-4.59,11.94-6.37,2.49-1.06,5.33-1.64,8.32-2.22,1.64-.35,3.23-.66,4.87-1.05l1.44-.39c3.81-.97,7.78-1.95,11.86-2.45,1.13-.12,4.9-.35,6.61,2.37,2.22,3.5,3.39,5.17,4.56,6.89,1.12,1.63,2.25,3.3,4.39,6.65,2.02,3.15,2.76,4.86,3.5,6.65.9,1.98,1.79,4.05,4.13,7.74,2.14,3.35,3.19,5.1,4.2,6.81,1.05,1.75,2.1,3.5,4.32,6.96,2.13,3.35,5.6,5.41,9.72,5.84,3.03.27,6.3-.35,9.18-1.83h.7l.94-.58c6.84-4.36,8.67-12.49,4.35-19.26-1.63-2.57-2.25-3.89-2.92-5.29-.73-1.6-1.47-3.23-3.38-6.22h-.04c-1.9-3.08-3.31-4.52-4.51-5.76-1.09-1.13-2.02-2.14-3.58-4.55-1.56-2.45-2.06-3.74-2.61-5.22-.66-1.63-1.36-3.46-3.34-6.53-1.87-2.96-3-4.36-4.09-5.68-1.01-1.25-1.94-2.37-3.58-4.98-1.09-1.67-.58-4.28-.19-5.68.43-1.52.82-3.07,1.17-4.59.66-2.92,1.32-5.64,2.41-8.17.15-.35.35-.74.54-1.09.94-1.91,2.22-3.77,3.5-5.72,1.02-1.48,1.99-2.95,2.92-4.47.62-1.09,1.25-2.18,1.87-3.27,1.63-2.88,3.15-5.56,5.02-8.05.89-1.21,1.79-2.41,2.64-3.66,1.71-2.41,3.47-4.9,5.45-7.04,3.19-3.46,6.38-6.65,9.49-9.45,1.79-1.64,3.89-3.04,6.15-4.52,1.59-1.05,3.23-2.14,4.78-3.3,3.35-2.57,6.89-4.83,10.66-7.24l.43-.27c1.91-1.21,3.66-2.57,5.37-3.85,2.25-1.75,4.39-3.39,6.61-4.55,3.42-1.83,7.08-3.39,10.62-4.87l2.72-1.16c2.42-1.01,5.02-1.64,7.78-2.3,2.07-.47,4.21-.97,6.31-1.67,4.35-1.44,9.06-2.92,13.88-4.05,5.68-1.28,10.04-2.1,14.17-2.6,2.06-.24,4.12-.66,6.14-1.05,2.88-.59,5.64-1.13,8.17-1.13,2.72,0,5.56.35,8.29.74,1.05.11,2.1.27,3.15.39,2.29.27,4.51,2.21,5.44,4.78,1.25,3.39,2.1,5.06,2.96,6.61.74,1.44,1.44,2.77,2.53,5.68,1.01,2.84,1.24,4.21,1.52,5.84.27,1.75.62,3.73,1.9,7.2,1.09,2.99,1.48,4.51,1.91,6.1.43,1.68.89,3.43,2.1,6.73,1.17,3.15,1.67,4.71,2.22,6.27.58,1.63,1.13,3.23,2.29,6.42,1.21,3.34,1.95,4.98,2.69,6.53.74,1.48,1.4,2.92,2.49,5.91,2.17,6.03,8.28,9.38,14.82,8.64l.27.74,3.66-1.32c3.61-1.33,6.61-3.82,8.4-7.12,1.94-3.5,2.29-7.51.93-11.17-1.2-3.3-2.14-4.98-2.99-6.42-.78-1.32-1.44-2.49-2.41-5.17-.94-2.64-1.17-3.97-1.4-5.48-.28-1.68-.59-3.54-1.79-6.89-1.21-3.31-2.14-4.94-3-6.38-.78-1.36-1.44-2.53-2.41-5.21-.94-2.61-1.13-3.93-1.36-5.45-.24-1.67-.51-3.62-1.71-7-1.09-2.96-1.6-4.44-2.07-5.91-.54-1.56-1.05-3.08-2.14-6.11-.58-1.64-1.59-5.6,1.91-7.7,2.18-1.29,4.94-2.53,8.13-3.97l3.46-1.56c1.36-.62,2.76-1.36,4.24-2.14,2.34-1.24,4.79-2.53,7.47-3.5,3.74-1.32,7.94-2.53,12.49-3.81,4.05-1.17,8.52-2.18,12.76-3.11,3.15-.7,6.38-1.17,9.8-1.64,1.48-.23,3-.43,4.52-.66,4.62-.74,9.53-1.48,14.39-1.91.25-.02.5-.05.75-.08-14.62,33.08-21.76,67.25-9.14,94.13,36.09,76.9,87.88,83.99,80.04,160.48-7.85,76.5-62.78,49.82-65.92,129.86Z"/>
  </g>
</svg>